<svg id="Group" xmlns="http://www.w3.org/2000/svg" width="1006.312" height="449.943" viewBox="0 0 1006.312 449.943">
  <g id="Group_79" data-name="Group 79">
    <path id="Fill_1" data-name="Fill 1" d="M30.407,15.244A15.2,15.2,0,1,1,15.2,0a15.224,15.224,0,0,1,15.21,15.244" fill="#f2054b"/>
    <path id="Fill_3" data-name="Fill 3" d="M30.407,15.244A15.2,15.2,0,1,1,15.2,0,15.223,15.223,0,0,1,30.407,15.244" transform="translate(91.222)" fill="#f2054b"/>
    <path id="Fill_5" data-name="Fill 5" d="M30.407,15.244A15.2,15.2,0,1,1,15.2,0a15.224,15.224,0,0,1,15.2,15.244" transform="translate(174.841)" fill="#f2054b"/>
    <path id="Fill_7" data-name="Fill 7" d="M30.407,15.244A15.2,15.2,0,1,1,15.2,0a15.225,15.225,0,0,1,15.21,15.244" transform="translate(266.063)" fill="#f2054b"/>
    <path id="Fill_9" data-name="Fill 9" d="M30.407,15.244A15.2,15.2,0,1,1,15.2,0,15.221,15.221,0,0,1,30.407,15.244" transform="translate(349.683)" fill="#f2054b"/>
    <path id="Fill_14" data-name="Fill 14" d="M30.407,15.244A15.2,15.2,0,1,1,15.2,0a15.224,15.224,0,0,1,15.21,15.244" transform="translate(0 83.842)" fill="#f2054b"/>
    <path id="Fill_16" data-name="Fill 16" d="M30.407,15.244A15.2,15.2,0,1,1,15.2,0,15.223,15.223,0,0,1,30.407,15.244" transform="translate(91.222 83.842)" fill="#f2054b"/>
    <path id="Fill_18" data-name="Fill 18" d="M30.407,15.244A15.2,15.2,0,1,1,15.2,0a15.224,15.224,0,0,1,15.2,15.244" transform="translate(174.841 83.842)" fill="#f2054b"/>
    <path id="Fill_20" data-name="Fill 20" d="M30.407,15.244A15.2,15.2,0,1,1,15.2,0a15.225,15.225,0,0,1,15.21,15.244" transform="translate(266.063 83.842)" fill="#f2054b"/>
    <path id="Fill_22" data-name="Fill 22" d="M30.407,15.244A15.2,15.2,0,1,1,15.2,0,15.221,15.221,0,0,1,30.407,15.244" transform="translate(349.683 83.842)" fill="#f2054b"/>
    <path id="Fill_53" data-name="Fill 53" d="M30.407,15.244a15.418,15.418,0,0,1-3.263,9.436A15.023,15.023,0,0,1,15.2,30.488a15.244,15.244,0,1,1,15.21-15.244" transform="translate(0 335.612)" fill="#f2054b"/>
    <path id="Fill_55" data-name="Fill 55" d="M30.407,15.244A15.2,15.2,0,1,1,15.2,0,15.225,15.225,0,0,1,30.407,15.244" transform="translate(91.222 335.612)" fill="#f2054b"/>
    <path id="Fill_57" data-name="Fill 57" d="M30.407,15.244A15.2,15.2,0,1,1,15.2,0a15.226,15.226,0,0,1,15.2,15.244" transform="translate(174.841 335.612)" fill="#f2054b"/>
    <path id="Fill_59" data-name="Fill 59" d="M30.407,15.244A15.2,15.2,0,1,1,15.2,0a15.227,15.227,0,0,1,15.21,15.244" transform="translate(266.063 335.612)" fill="#f2054b"/>
    <path id="Fill_61" data-name="Fill 61" d="M30.407,15.244A15.2,15.2,0,1,1,15.2,0,15.223,15.223,0,0,1,30.407,15.244" transform="translate(349.683 335.612)" fill="#f2054b"/>
    <path id="Fill_66" data-name="Fill 66" d="M30.407,15.244A15.2,15.2,0,1,1,15.2,0a15.224,15.224,0,0,1,15.21,15.244" transform="translate(0 419.455)" fill="#f2054b"/>
    <path id="Fill_68" data-name="Fill 68" d="M30.407,15.244A15.2,15.2,0,1,1,15.2,0,15.223,15.223,0,0,1,30.407,15.244" transform="translate(91.222 419.455)" fill="#f2054b"/>
    <path id="Fill_70" data-name="Fill 70" d="M30.407,15.244A15.2,15.2,0,1,1,15.2,0a15.224,15.224,0,0,1,15.2,15.244" transform="translate(174.841 419.455)" fill="#f2054b"/>
    <path id="Fill_72" data-name="Fill 72" d="M30.407,15.244A15.2,15.2,0,1,1,15.2,0a15.225,15.225,0,0,1,15.21,15.244" transform="translate(266.063 419.455)" fill="#f2054b"/>
    <path id="Fill_74" data-name="Fill 74" d="M30.407,15.244A15.2,15.2,0,1,1,15.2,0,15.221,15.221,0,0,1,30.407,15.244" transform="translate(349.683 419.455)" fill="#f2054b"/>
    <path id="Fill_9_Copy" data-name="Fill 9 Copy" d="M30.407,15.244A15.2,15.2,0,1,1,15.2,0,15.221,15.221,0,0,1,30.407,15.244" transform="translate(440.905)" fill="#f2054b"/>
    <path id="Fill_22_Copy" data-name="Fill 22 Copy" d="M30.407,15.244A15.2,15.2,0,1,1,15.2,0,15.221,15.221,0,0,1,30.407,15.244" transform="translate(440.905 83.842)" fill="#f2054b"/>
    <path id="Fill_61_Copy" data-name="Fill 61 Copy" d="M30.407,15.244A15.2,15.2,0,1,1,15.2,0,15.223,15.223,0,0,1,30.407,15.244" transform="translate(440.905 335.612)" fill="#f2054b"/>
    <path id="Fill_74_Copy" data-name="Fill 74 Copy" d="M30.407,15.244A15.2,15.2,0,1,1,15.2,0,15.221,15.221,0,0,1,30.407,15.244" transform="translate(440.905 419.455)" fill="#f2054b"/>
    <path id="Fill_1-2" data-name="Fill 1" d="M30.407,15.244A15.2,15.2,0,1,1,15.2,0a15.224,15.224,0,0,1,15.21,15.244" transform="translate(0 168)" fill="#f2054b"/>
    <path id="Fill_3-2" data-name="Fill 3" d="M30.407,15.244A15.2,15.2,0,1,1,15.2,0,15.223,15.223,0,0,1,30.407,15.244" transform="translate(91.222 168)" fill="#f2054b"/>
    <path id="Fill_5-2" data-name="Fill 5" d="M30.407,15.244A15.2,15.2,0,1,1,15.2,0a15.224,15.224,0,0,1,15.2,15.244" transform="translate(174.841 168)" fill="#f2054b"/>
    <path id="Fill_7-2" data-name="Fill 7" d="M30.407,15.244A15.2,15.2,0,1,1,15.2,0a15.225,15.225,0,0,1,15.21,15.244" transform="translate(266.063 168)" fill="#f2054b"/>
    <path id="Fill_9-2" data-name="Fill 9" d="M30.407,15.244A15.2,15.2,0,1,1,15.2,0,15.221,15.221,0,0,1,30.407,15.244" transform="translate(349.683 168)" fill="#f2054b"/>
    <path id="Fill_14-2" data-name="Fill 14" d="M30.407,15.244A15.2,15.2,0,1,1,15.2,0a15.224,15.224,0,0,1,15.21,15.244" transform="translate(0 251.842)" fill="#f2054b"/>
    <path id="Fill_16-2" data-name="Fill 16" d="M30.407,15.244A15.2,15.2,0,1,1,15.2,0,15.223,15.223,0,0,1,30.407,15.244" transform="translate(91.222 251.842)" fill="#f2054b"/>
    <path id="Fill_18-2" data-name="Fill 18" d="M30.407,15.244A15.2,15.2,0,1,1,15.2,0a15.224,15.224,0,0,1,15.2,15.244" transform="translate(174.841 251.842)" fill="#f2054b"/>
    <path id="Fill_20-2" data-name="Fill 20" d="M30.407,15.244A15.2,15.2,0,1,1,15.2,0a15.225,15.225,0,0,1,15.21,15.244" transform="translate(266.063 251.842)" fill="#f2054b"/>
    <path id="Fill_22-2" data-name="Fill 22" d="M30.407,15.244A15.2,15.2,0,1,1,15.2,0,15.221,15.221,0,0,1,30.407,15.244" transform="translate(349.683 251.842)" fill="#f2054b"/>
    <path id="Fill_9_Copy-2" data-name="Fill 9 Copy" d="M30.407,15.244A15.2,15.2,0,1,1,15.2,0,15.221,15.221,0,0,1,30.407,15.244" transform="translate(440.905 168)" fill="#f2054b"/>
    <path id="Fill_22_Copy-2" data-name="Fill 22 Copy" d="M30.407,15.244A15.2,15.2,0,1,1,15.2,0,15.221,15.221,0,0,1,30.407,15.244" transform="translate(440.905 251.842)" fill="#f2054b"/>
  </g>
  <g id="Group_79-2" data-name="Group 79" transform="translate(535)">
    <path id="Fill_1-3" data-name="Fill 1" d="M30.407,15.244A15.2,15.2,0,1,1,15.2,0a15.224,15.224,0,0,1,15.21,15.244" fill="#f2054b"/>
    <path id="Fill_3-3" data-name="Fill 3" d="M30.407,15.244A15.2,15.2,0,1,1,15.2,0,15.223,15.223,0,0,1,30.407,15.244" transform="translate(91.222)" fill="#f2054b"/>
    <path id="Fill_5-3" data-name="Fill 5" d="M30.407,15.244A15.2,15.2,0,1,1,15.2,0a15.224,15.224,0,0,1,15.2,15.244" transform="translate(174.841)" fill="#f2054b"/>
    <path id="Fill_7-3" data-name="Fill 7" d="M30.407,15.244A15.2,15.2,0,1,1,15.2,0a15.225,15.225,0,0,1,15.21,15.244" transform="translate(266.063)" fill="#f2054b"/>
    <path id="Fill_9-3" data-name="Fill 9" d="M30.407,15.244A15.2,15.2,0,1,1,15.2,0,15.221,15.221,0,0,1,30.407,15.244" transform="translate(349.683)" fill="#f2054b"/>
    <path id="Fill_14-3" data-name="Fill 14" d="M30.407,15.244A15.2,15.2,0,1,1,15.2,0a15.224,15.224,0,0,1,15.21,15.244" transform="translate(0 83.842)" fill="#f2054b"/>
    <path id="Fill_16-3" data-name="Fill 16" d="M30.407,15.244A15.2,15.2,0,1,1,15.2,0,15.223,15.223,0,0,1,30.407,15.244" transform="translate(91.222 83.842)" fill="#f2054b"/>
    <path id="Fill_18-3" data-name="Fill 18" d="M30.407,15.244A15.2,15.2,0,1,1,15.2,0a15.224,15.224,0,0,1,15.2,15.244" transform="translate(174.841 83.842)" fill="#f2054b"/>
    <path id="Fill_20-3" data-name="Fill 20" d="M30.407,15.244A15.2,15.2,0,1,1,15.2,0a15.225,15.225,0,0,1,15.21,15.244" transform="translate(266.063 83.842)" fill="#f2054b"/>
    <path id="Fill_22-3" data-name="Fill 22" d="M30.407,15.244A15.2,15.2,0,1,1,15.2,0,15.221,15.221,0,0,1,30.407,15.244" transform="translate(349.683 83.842)" fill="#f2054b"/>
    <path id="Fill_53-2" data-name="Fill 53" d="M30.407,15.244a15.418,15.418,0,0,1-3.263,9.436A15.023,15.023,0,0,1,15.2,30.488a15.244,15.244,0,1,1,15.21-15.244" transform="translate(0 335.612)" fill="#f2054b"/>
    <path id="Fill_55-2" data-name="Fill 55" d="M30.407,15.244A15.2,15.2,0,1,1,15.2,0,15.225,15.225,0,0,1,30.407,15.244" transform="translate(91.222 335.612)" fill="#f2054b"/>
    <path id="Fill_57-2" data-name="Fill 57" d="M30.407,15.244A15.2,15.2,0,1,1,15.2,0a15.226,15.226,0,0,1,15.2,15.244" transform="translate(174.841 335.612)" fill="#f2054b"/>
    <path id="Fill_59-2" data-name="Fill 59" d="M30.407,15.244A15.2,15.2,0,1,1,15.2,0a15.227,15.227,0,0,1,15.21,15.244" transform="translate(266.063 335.612)" fill="#f2054b"/>
    <path id="Fill_61-2" data-name="Fill 61" d="M30.407,15.244A15.2,15.2,0,1,1,15.2,0,15.223,15.223,0,0,1,30.407,15.244" transform="translate(349.683 335.612)" fill="#f2054b"/>
    <path id="Fill_66-2" data-name="Fill 66" d="M30.407,15.244A15.2,15.2,0,1,1,15.2,0a15.224,15.224,0,0,1,15.21,15.244" transform="translate(0 419.455)" fill="#f2054b"/>
    <path id="Fill_68-2" data-name="Fill 68" d="M30.407,15.244A15.2,15.2,0,1,1,15.2,0,15.223,15.223,0,0,1,30.407,15.244" transform="translate(91.222 419.455)" fill="#f2054b"/>
    <path id="Fill_70-2" data-name="Fill 70" d="M30.407,15.244A15.2,15.2,0,1,1,15.2,0a15.224,15.224,0,0,1,15.2,15.244" transform="translate(174.841 419.455)" fill="#f2054b"/>
    <path id="Fill_72-2" data-name="Fill 72" d="M30.407,15.244A15.2,15.2,0,1,1,15.2,0a15.225,15.225,0,0,1,15.21,15.244" transform="translate(266.063 419.455)" fill="#f2054b"/>
    <path id="Fill_74-2" data-name="Fill 74" d="M30.407,15.244A15.2,15.2,0,1,1,15.2,0,15.221,15.221,0,0,1,30.407,15.244" transform="translate(349.683 419.455)" fill="#f2054b"/>
    <path id="Fill_9_Copy-3" data-name="Fill 9 Copy" d="M30.407,15.244A15.2,15.2,0,1,1,15.2,0,15.221,15.221,0,0,1,30.407,15.244" transform="translate(440.905)" fill="#f2054b"/>
    <path id="Fill_22_Copy-3" data-name="Fill 22 Copy" d="M30.407,15.244A15.2,15.2,0,1,1,15.2,0,15.221,15.221,0,0,1,30.407,15.244" transform="translate(440.905 83.842)" fill="#f2054b"/>
    <path id="Fill_61_Copy-2" data-name="Fill 61 Copy" d="M30.407,15.244A15.2,15.2,0,1,1,15.2,0,15.223,15.223,0,0,1,30.407,15.244" transform="translate(440.905 335.612)" fill="#f2054b"/>
    <path id="Fill_74_Copy-2" data-name="Fill 74 Copy" d="M30.407,15.244A15.2,15.2,0,1,1,15.2,0,15.221,15.221,0,0,1,30.407,15.244" transform="translate(440.905 419.455)" fill="#f2054b"/>
    <path id="Fill_1-4" data-name="Fill 1" d="M30.407,15.244A15.2,15.2,0,1,1,15.2,0a15.224,15.224,0,0,1,15.21,15.244" transform="translate(0 168)" fill="#f2054b"/>
    <path id="Fill_3-4" data-name="Fill 3" d="M30.407,15.244A15.2,15.2,0,1,1,15.2,0,15.223,15.223,0,0,1,30.407,15.244" transform="translate(91.222 168)" fill="#f2054b"/>
    <path id="Fill_5-4" data-name="Fill 5" d="M30.407,15.244A15.2,15.2,0,1,1,15.2,0a15.224,15.224,0,0,1,15.2,15.244" transform="translate(174.841 168)" fill="#f2054b"/>
    <path id="Fill_7-4" data-name="Fill 7" d="M30.407,15.244A15.2,15.2,0,1,1,15.2,0a15.225,15.225,0,0,1,15.21,15.244" transform="translate(266.063 168)" fill="#f2054b"/>
    <path id="Fill_9-4" data-name="Fill 9" d="M30.407,15.244A15.2,15.2,0,1,1,15.2,0,15.221,15.221,0,0,1,30.407,15.244" transform="translate(349.683 168)" fill="#f2054b"/>
    <path id="Fill_14-4" data-name="Fill 14" d="M30.407,15.244A15.2,15.2,0,1,1,15.2,0a15.224,15.224,0,0,1,15.21,15.244" transform="translate(0 251.842)" fill="#f2054b"/>
    <path id="Fill_16-4" data-name="Fill 16" d="M30.407,15.244A15.2,15.2,0,1,1,15.2,0,15.223,15.223,0,0,1,30.407,15.244" transform="translate(91.222 251.842)" fill="#f2054b"/>
    <path id="Fill_18-4" data-name="Fill 18" d="M30.407,15.244A15.2,15.2,0,1,1,15.2,0a15.224,15.224,0,0,1,15.2,15.244" transform="translate(174.841 251.842)" fill="#f2054b"/>
    <path id="Fill_20-4" data-name="Fill 20" d="M30.407,15.244A15.2,15.2,0,1,1,15.2,0a15.225,15.225,0,0,1,15.21,15.244" transform="translate(266.063 251.842)" fill="#f2054b"/>
    <path id="Fill_22-4" data-name="Fill 22" d="M30.407,15.244A15.2,15.2,0,1,1,15.2,0,15.221,15.221,0,0,1,30.407,15.244" transform="translate(349.683 251.842)" fill="#f2054b"/>
    <path id="Fill_9_Copy-4" data-name="Fill 9 Copy" d="M30.407,15.244A15.2,15.2,0,1,1,15.2,0,15.221,15.221,0,0,1,30.407,15.244" transform="translate(440.905 168)" fill="#f2054b"/>
    <path id="Fill_22_Copy-4" data-name="Fill 22 Copy" d="M30.407,15.244A15.2,15.2,0,1,1,15.2,0,15.221,15.221,0,0,1,30.407,15.244" transform="translate(440.905 251.842)" fill="#f2054b"/>
  </g>
</svg>
